<?xml version="1.0" encoding="us-ascii" standalone="no"?><svg xmlns="http://www.w3.org/2000/svg" xmlns:xlink="http://www.w3.org/1999/xlink" contentStyleType="text/css" height="532px" preserveAspectRatio="none" style="width:631px;height:532px;background:#FFFFFF;" version="1.1" viewBox="0 0 631 532" width="631px" zoomAndPan="magnify"><defs/><g><text fill="#000000" font-family="sans-serif" font-size="14" font-weight="bold" lengthAdjust="spacing" textLength="158" x="235.5" y="27.9951">Cria&#231;&#227;o de Consulta</text><rect fill="#FFFFFF" height="395.7266" style="stroke:#181818;stroke-width:1.0;" width="10" x="286" y="83.5938"/><line style="stroke:#181818;stroke-width:0.5;stroke-dasharray:5.0,5.0;" x1="85" x2="85" y1="73.5938" y2="497.3203"/><line style="stroke:#181818;stroke-width:0.5;stroke-dasharray:5.0,5.0;" x1="291" x2="291" y1="73.5938" y2="497.3203"/><line style="stroke:#181818;stroke-width:0.5;stroke-dasharray:5.0,5.0;" x1="585" x2="585" y1="73.5938" y2="497.3203"/><path d="M10,47.2969 L160,47.2969 C165,47.2969 165,60.4453 165,60.4453 C165,60.4453 165,73.5938 160,73.5938 L10,73.5938 C5,73.5938 5,60.4453 5,60.4453 C5,60.4453 5,47.2969 10,47.2969 " fill="#E2E2F0" style="stroke:#181818;stroke-width:0.5;"/><path d="M160,47.2969 C155,47.2969 155,60.4453 155,60.4453 C155,73.5938 160,73.5938 160,73.5938 " fill="none" style="stroke:#181818;stroke-width:0.5;"/><text fill="#000000" font-family="sans-serif" font-size="14" lengthAdjust="spacing" textLength="140" x="10" y="65.292">Appointment Queue</text><path d="M10,496.3203 L160,496.3203 C165,496.3203 165,509.4688 165,509.4688 C165,509.4688 165,522.6172 160,522.6172 L10,522.6172 C5,522.6172 5,509.4688 5,509.4688 C5,509.4688 5,496.3203 10,496.3203 " fill="#E2E2F0" style="stroke:#181818;stroke-width:0.5;"/><path d="M160,496.3203 C155,496.3203 155,509.4688 155,509.4688 C155,522.6172 160,522.6172 160,522.6172 " fill="none" style="stroke:#181818;stroke-width:0.5;"/><text fill="#000000" font-family="sans-serif" font-size="14" lengthAdjust="spacing" textLength="140" x="10" y="514.3154">Appointment Queue</text><rect fill="#E2E2F0" height="30.2969" rx="2.5" ry="2.5" style="stroke:#181818;stroke-width:0.5;" width="212" x="185" y="42.2969"/><text fill="#000000" font-family="sans-serif" font-size="14" lengthAdjust="spacing" textLength="198" x="192" y="62.292">Appointment Creator Service</text><rect fill="#E2E2F0" height="30.2969" rx="2.5" ry="2.5" style="stroke:#181818;stroke-width:0.5;" width="212" x="185" y="496.3203"/><text fill="#000000" font-family="sans-serif" font-size="14" lengthAdjust="spacing" textLength="198" x="192" y="516.3154">Appointment Creator Service</text><rect fill="#E2E2F0" height="30.2969" rx="2.5" ry="2.5" style="stroke:#181818;stroke-width:0.5;" width="80" x="545" y="42.2969"/><text fill="#000000" font-family="sans-serif" font-size="14" lengthAdjust="spacing" textLength="66" x="552" y="62.292">Database</text><rect fill="#E2E2F0" height="30.2969" rx="2.5" ry="2.5" style="stroke:#181818;stroke-width:0.5;" width="80" x="545" y="496.3203"/><text fill="#000000" font-family="sans-serif" font-size="14" lengthAdjust="spacing" textLength="66" x="552" y="516.3154">Database</text><rect fill="#FFFFFF" height="395.7266" style="stroke:#181818;stroke-width:1.0;" width="10" x="286" y="83.5938"/><polygon fill="#181818" points="96,100.7266,86,104.7266,96,108.7266,92,104.7266" style="stroke:#181818;stroke-width:1.0;"/><line style="stroke:#181818;stroke-width:1.0;" x1="90" x2="285" y1="104.7266" y2="104.7266"/><text fill="#000000" font-family="sans-serif" font-size="13" lengthAdjust="spacing" textLength="177" x="102" y="99.6606">Consome os eventos da fila</text><polygon fill="#181818" points="274,129.8594,284,133.8594,274,137.8594,278,133.8594" style="stroke:#181818;stroke-width:1.0;"/><line style="stroke:#181818;stroke-width:1.0;stroke-dasharray:2.0,2.0;" x1="85" x2="280" y1="133.8594" y2="133.8594"/><text fill="#000000" font-family="sans-serif" font-size="13" lengthAdjust="spacing" textLength="110" x="92" y="128.7935">Retorna o evento</text><line style="stroke:#181818;stroke-width:1.0;" x1="296" x2="338" y1="178.125" y2="178.125"/><line style="stroke:#181818;stroke-width:1.0;" x1="338" x2="338" y1="178.125" y2="191.125"/><line style="stroke:#181818;stroke-width:1.0;" x1="297" x2="338" y1="191.125" y2="191.125"/><polygon fill="#181818" points="307,187.125,297,191.125,307,195.125,303,191.125" style="stroke:#181818;stroke-width:1.0;"/><text fill="#000000" font-family="sans-serif" font-size="13" lengthAdjust="spacing" textLength="207" x="303" y="157.9263">Analisa se o evento &#233; de cria&#231;&#227;o</text><text fill="#000000" font-family="sans-serif" font-size="13" lengthAdjust="spacing" textLength="171" x="303" y="173.0591">ou atualiza&#231;&#227;o de consulta</text><polygon fill="#181818" points="573,216.2578,583,220.2578,573,224.2578,577,220.2578" style="stroke:#181818;stroke-width:1.0;"/><line style="stroke:#181818;stroke-width:1.0;" x1="296" x2="579" y1="220.2578" y2="220.2578"/><text fill="#000000" font-family="sans-serif" font-size="13" lengthAdjust="spacing" textLength="179" x="303" y="215.1919">Busca os dados da consulta</text><polygon fill="#181818" points="307,245.3906,297,249.3906,307,253.3906,303,249.3906" style="stroke:#181818;stroke-width:1.0;"/><line style="stroke:#181818;stroke-width:1.0;stroke-dasharray:2.0,2.0;" x1="301" x2="584" y1="249.3906" y2="249.3906"/><text fill="#000000" font-family="sans-serif" font-size="13" lengthAdjust="spacing" textLength="190" x="313" y="244.3247">Retorna os dados da consulta</text><line style="stroke:#181818;stroke-width:1.0;" x1="296" x2="338" y1="278.5234" y2="278.5234"/><line style="stroke:#181818;stroke-width:1.0;" x1="338" x2="338" y1="278.5234" y2="291.5234"/><line style="stroke:#181818;stroke-width:1.0;" x1="297" x2="338" y1="291.5234" y2="291.5234"/><polygon fill="#181818" points="307,287.5234,297,291.5234,307,295.5234,303,291.5234" style="stroke:#181818;stroke-width:1.0;"/><text fill="#000000" font-family="sans-serif" font-size="13" lengthAdjust="spacing" textLength="270" x="303" y="273.4575">Analisa a disponibilidade de agendamento</text><line style="stroke:#181818;stroke-width:1.0;" x1="296" x2="338" y1="320.6563" y2="320.6563"/><line style="stroke:#181818;stroke-width:1.0;" x1="338" x2="338" y1="320.6563" y2="333.6563"/><line style="stroke:#181818;stroke-width:1.0;" x1="297" x2="338" y1="333.6563" y2="333.6563"/><polygon fill="#181818" points="307,329.6563,297,333.6563,307,337.6563,303,333.6563" style="stroke:#181818;stroke-width:1.0;"/><text fill="#000000" font-family="sans-serif" font-size="13" lengthAdjust="spacing" textLength="131" x="303" y="315.5903">Cria o agendamento</text><polygon fill="#181818" points="573,358.7891,583,362.7891,573,366.7891,577,362.7891" style="stroke:#181818;stroke-width:1.0;"/><line style="stroke:#181818;stroke-width:1.0;" x1="296" x2="579" y1="362.7891" y2="362.7891"/><text fill="#000000" font-family="sans-serif" font-size="13" lengthAdjust="spacing" textLength="141" x="303" y="357.7231">Salva o agendamento</text><polygon fill="#181818" points="307,387.9219,297,391.9219,307,395.9219,303,391.9219" style="stroke:#181818;stroke-width:1.0;"/><line style="stroke:#181818;stroke-width:1.0;stroke-dasharray:2.0,2.0;" x1="301" x2="584" y1="391.9219" y2="391.9219"/><text fill="#000000" font-family="sans-serif" font-size="13" lengthAdjust="spacing" textLength="128" x="313" y="386.856">Agendamento salvo</text><polygon fill="#181818" points="573,417.0547,583,421.0547,573,425.0547,577,421.0547" style="stroke:#181818;stroke-width:1.0;"/><line style="stroke:#181818;stroke-width:1.0;" x1="296" x2="579" y1="421.0547" y2="421.0547"/><text fill="#000000" font-family="sans-serif" font-size="13" lengthAdjust="spacing" textLength="175" x="303" y="415.9888">Atualiza o status do evento</text><polygon fill="#181818" points="307,446.1875,297,450.1875,307,454.1875,303,450.1875" style="stroke:#181818;stroke-width:1.0;"/><line style="stroke:#181818;stroke-width:1.0;stroke-dasharray:2.0,2.0;" x1="301" x2="584" y1="450.1875" y2="450.1875"/><text fill="#000000" font-family="sans-serif" font-size="13" lengthAdjust="spacing" textLength="114" x="313" y="445.1216">Evento atualizado</text><polygon fill="#181818" points="96,475.3203,86,479.3203,96,483.3203,92,479.3203" style="stroke:#181818;stroke-width:1.0;"/><line style="stroke:#181818;stroke-width:1.0;" x1="90" x2="290" y1="479.3203" y2="479.3203"/><text fill="#000000" font-family="sans-serif" font-size="13" lengthAdjust="spacing" textLength="173" x="102" y="474.2544">Deleta a mensagem da fila</text><!--SRC=[dLDBJeH04DrpYihikS34cE2C1z3PJc9gwD9KqdGZNR3mEYwCv-1Y5ZGVnu11bztrFhpNXR1OWaF5s7wqxnwC7hmBjHLCajUQQe9TLfQUdHJa11wwgnrWW7wOb5W9vroYpgw0XufGV0KdgXhE8mNd-LE8zzS2HnIyO8XeCnoI17FX1eKM1U97tgHBGzZtQNn1u0DGeoFV2SCpMnoOQNgxGdqa3U0G_C1Cbc2hxCoXvO0GQ1A0zhChE1_RFZjV0qgjmBUv_tpiVyLkx4KzxkgG8_IHJ0msaIVKXdnB_7zbHJ0SIk_umfPLaxey-4BEOF7t1hkjrEusyBzLSaBR_6Hjw2ARuH1KOejLDhoSkWNHPzG2frNPO7aVTs9yVxDg6VTq3qUo95t92WYQhvWssT2llyWN]--></g></svg>